<svg width="240" height="128" viewBox="0 0 240 128" fill="none" xmlns="http://www.w3.org/2000/svg">
<path d="M168.219 24.244C164.379 20.6019 160.486 18.7567 157.358 17.274C153.358 15.3781 151.59 14.4337 151.59 11.9125C151.59 6.21832 154.822 2.59478 154.851 2.56332C155.262 2.11767 155.371 1.47043 155.127 0.914817C154.884 0.358901 154.335 0 153.728 0H86.7689C86.1623 0 85.6131 0.359207 85.3699 0.914817C85.1265 1.47043 85.2352 2.11767 85.6467 2.56332C85.6794 2.59845 88.907 6.16181 88.907 11.9125C88.907 14.525 87.0765 15.518 82.9361 17.5156C79.8972 18.9818 76.1152 20.8062 72.3102 24.2147C67.3851 28.6266 65.2064 34.4573 66.0097 41.0758C66.7003 46.7666 69.6455 52.9232 74.3029 58.4124C81.7485 67.1876 87.6018 70.7486 91.876 73.3488C92.5917 73.7841 93.2673 74.1952 93.8849 74.5923C97.0051 76.5982 97.4122 78.2837 97.4568 78.536C97.429 78.9474 97.5744 79.291 97.8557 79.5992C98.1453 79.9163 98.5577 80.0275 98.9868 80.0275H141.51C141.94 80.0275 142.352 79.9163 142.642 79.5992C142.923 79.2913 143.069 78.9474 143.041 78.536C143.085 78.2837 143.492 76.5979 146.613 74.5923C147.23 74.1952 147.906 73.7841 148.622 73.3488C152.896 70.7486 158.749 67.1876 166.195 58.4124C170.69 53.1141 173.479 46.8613 174.047 40.8055C174.661 34.2722 172.591 28.3905 168.219 24.244ZM74.3481 26.49C77.8312 23.3699 81.3976 21.6493 84.263 20.2668C88.3939 18.2738 91.9615 16.5525 91.9615 11.9125C91.9615 8.0672 90.7599 5.0286 89.6615 3.05448H150.835C149.736 5.0286 148.535 8.0672 148.535 11.9125C148.535 16.4722 152.017 18.1229 156.049 20.034C158.981 21.4238 162.629 23.1533 166.116 26.4604C167.799 28.0563 169.019 29.8563 169.834 31.7862L160.946 40.6747C158.772 42.8492 155.233 42.8492 153.059 40.6747L150.895 38.5109C149.265 36.8804 147.098 35.9827 144.792 35.9827C142.487 35.9827 140.319 36.8807 138.689 38.5109L137.298 39.9019C135.124 42.0764 131.586 42.0767 129.411 39.9019L127.248 37.7381C123.882 34.3727 118.406 34.373 115.041 37.7381L111.64 41.1387C109.466 43.3132 105.928 43.3135 103.754 41.1387L101.126 38.5109C99.496 36.8804 97.3285 35.9827 95.023 35.9827C92.7175 35.9827 90.55 36.8807 88.9199 38.5109L86.1378 41.2929C85.0846 42.3464 83.6839 42.9265 82.1945 42.9265C80.7048 42.9265 79.3043 42.3464 78.2512 41.2929L69.8672 32.909C70.7139 30.6227 72.1602 28.4495 74.3481 26.49ZM163.866 56.4362C156.74 64.8348 151.13 68.2475 147.034 70.7394C146.302 71.1847 145.61 71.6056 144.961 72.0229C142.057 73.8901 140.845 75.7289 140.341 76.973H100.156C99.6518 75.7289 98.4407 73.8901 95.5365 72.0229C94.8871 71.6056 94.1956 71.1847 93.4634 70.7394C89.3676 68.2472 83.7581 64.8348 76.632 56.4362C75.5886 55.2061 74.5937 53.8799 73.6856 52.4843L76.0916 54.8903C79.4568 58.2554 84.9328 58.2554 88.2983 54.8903L91.0803 52.1083C92.1335 51.0548 93.534 50.4747 95.0236 50.4747C96.513 50.4747 97.9138 51.0548 98.967 52.1083L101.594 54.736C104.96 58.1015 110.436 58.1012 113.801 54.736L117.202 51.3355C119.376 49.161 122.914 49.161 125.088 51.3355L127.252 53.4993C130.618 56.8647 136.094 56.8647 139.459 53.4993L140.85 52.1083C141.903 51.0548 143.304 50.4747 144.793 50.4747C146.283 50.4747 147.683 51.0548 148.736 52.1083L150.9 54.2721C154.265 57.6372 159.741 57.6372 163.107 54.2721L168.851 48.5284C167.599 51.3535 165.889 54.0509 163.866 56.4362ZM170.762 42.4427C170.593 42.5169 170.435 42.6232 170.297 42.7612L160.946 52.1125C158.772 54.287 155.234 54.287 153.059 52.1125L150.896 49.9487C149.266 48.3186 147.098 47.4209 144.792 47.4209C142.487 47.4209 140.319 48.3186 138.689 49.9487L137.298 51.3398C135.124 53.5142 131.586 53.5142 129.412 51.3398L127.248 49.1757C123.882 45.8102 118.407 45.8105 115.041 49.1757L111.641 52.5762C109.467 54.751 105.929 54.751 103.754 52.5762L101.126 49.9484C99.4963 48.3183 97.3288 47.4205 95.0233 47.4205C92.7178 47.4205 90.5503 48.3183 88.9202 49.9484L86.1381 52.7305C83.964 54.9049 80.4256 54.9049 78.2515 52.7305L69.8275 44.3068C69.8232 44.3025 69.8193 44.2986 69.815 44.2946C69.0425 41.6717 68.7193 38.9935 69.0312 36.3929L76.091 43.4528C77.7209 45.083 79.8887 45.981 82.1942 45.981C84.4994 45.981 86.6672 45.083 88.2973 43.4528L91.0794 40.6707C92.1326 39.6173 93.533 39.0372 95.0227 39.0372C96.5121 39.0372 97.9129 39.6173 98.966 40.6707L101.594 43.2985C104.959 46.664 110.435 46.6636 113.8 43.2985L117.201 39.898C119.375 37.7238 122.913 37.7235 125.087 39.898L127.251 42.0618C130.617 45.4272 136.093 45.4269 139.458 42.0618L140.849 40.6707C141.902 39.6173 143.303 39.0372 144.792 39.0372C146.282 39.0372 147.682 39.6173 148.736 40.6707L150.899 42.8345C154.265 46.1997 159.74 46.2 163.106 42.8345L170.83 35.1107C171.273 37.4758 171.22 39.9584 170.762 42.4427Z" fill="#231F20"/>
<path d="M169.034 86.8947C167.353 86.8947 165.602 87.2732 163.782 88.0295L163.907 88.45C165.056 88.0298 166.134 87.8197 167.143 87.8197C169.383 87.8197 171.26 88.8983 172.772 91.0552L162.353 116.013C161.933 116.825 161.401 117.441 160.756 117.861C160.112 118.253 159.454 118.45 158.782 118.45H158.403V118.87H166.849V118.45H166.512C165.896 118.45 165.434 118.267 165.126 117.903C164.846 117.511 164.706 117.147 164.706 116.811C164.706 116.475 164.776 116.139 164.916 115.802L167.815 108.324H179.327L180.966 113.113C182.647 118.099 184.692 121.811 187.101 124.248C188.221 125.425 189.426 126.335 190.714 126.979C192.002 127.652 193.291 127.987 194.58 127.987C195.868 127.987 197.185 127.763 198.53 127.315L198.487 126.895C197.927 127.007 197.282 127.063 196.554 127.063C195.854 127.063 194.958 126.867 193.865 126.475C192.773 126.083 191.723 125.396 190.715 124.416C189.706 123.464 188.586 122.021 187.353 120.089C186.148 118.184 184.957 115.606 183.781 112.357L178.656 97.8197C177.619 94.8786 176.765 92.8478 176.092 91.7274C175.084 90.1028 174.173 89.0102 173.361 88.45C171.876 87.4135 170.434 86.8947 169.034 86.8947V86.8947ZM215.672 88.6598V93.9541L216.092 93.912V93.1978C216.092 92.5255 216.316 91.9509 216.764 91.4747C217.24 90.9705 217.815 90.7046 218.487 90.6765H226.47V115.886C226.442 116.587 226.162 117.189 225.629 117.693C225.125 118.197 224.51 118.45 223.782 118.45H223.235V118.87H232.436V118.45H231.89C231.161 118.45 230.532 118.197 230 117.693C229.496 117.189 229.23 116.573 229.202 115.844V90.6765H237.184C237.828 90.7046 238.389 90.9705 238.865 91.4747C239.341 91.9509 239.579 92.5255 239.579 93.1978V93.912L240 93.9541V88.6598C239.804 88.7437 239.243 88.8982 238.319 89.1223C237.422 89.3183 236.288 89.416 234.916 89.416H220.714C219.846 89.416 218.894 89.3324 217.857 89.1642C216.821 88.9961 216.092 88.8279 215.672 88.6598ZM16.1344 88.8696C13.1093 88.8696 10.3643 89.5419 7.89922 90.8864C5.43429 92.2029 3.50118 94.0236 2.10061 96.3485C0.700039 98.6734 0 101.279 0 104.164C0 107.021 0.700039 109.613 2.10061 111.938C3.52923 114.263 5.51826 116.097 8.06715 117.442C10.6441 118.786 13.5294 119.458 16.7229 119.458C21.4568 119.458 25.1119 118.114 27.6891 115.425C30.294 112.708 31.5969 108.94 31.5969 104.122H31.5978C31.5978 103.786 31.5792 103.449 31.5552 103.113H31.1348C31.1348 107.791 29.8188 111.475 27.186 114.164C24.5808 116.853 21.2055 118.198 17.0599 118.198C12.9143 118.198 9.55284 116.853 6.9759 114.164C4.42683 111.447 3.15187 108.086 3.15187 104.08C3.15187 100.075 4.38494 96.7549 6.84987 94.1219C9.34304 91.4608 12.4514 90.1302 16.1769 90.1302C18.782 90.1302 21.1493 90.8025 23.2782 92.1471C25.407 93.4636 26.7655 95.2981 27.3538 97.651H27.7324L26.8913 91.7275C25.5747 90.8591 23.9224 90.1729 21.9336 89.6687C19.9728 89.1365 18.0399 88.8696 16.135 88.8696H16.1344ZM46.7234 88.8696C46.7234 89.4859 46.2054 90.929 45.1691 93.1979L35.6722 115.802C35.252 116.671 34.7064 117.329 34.0341 117.777C33.3619 118.225 32.6756 118.45 31.9753 118.45H31.5978V118.87H40.0426V118.45H39.6648C39.0765 118.45 38.6276 118.267 38.3196 117.903C38.0393 117.511 37.9 117.161 37.9 116.853C37.9 116.517 37.9552 116.181 38.0678 115.844L40.8828 108.66H52.2275L54.9166 115.802C55.0291 116.139 55.0844 116.475 55.0844 116.811C55.0844 117.147 54.9296 117.511 54.6222 117.903C54.342 118.267 53.9076 118.45 53.3195 118.45H52.9418V118.87H62.3955V118.45H62.0598H62.0589C61.331 118.449 60.6312 118.225 59.9591 117.777C59.2869 117.329 58.7541 116.671 58.3618 115.802L47.1011 88.8696H46.7234ZM72.4375 88.8696C70.1686 88.8696 68.3619 89.5847 67.0175 91.0132C65.7009 92.4138 65.0424 94.108 65.0424 96.0968C65.0424 98.0855 65.7984 99.7807 67.311 101.181L75.3782 108.66C76.4708 109.669 77.0176 110.985 77.0176 112.61C77.0176 114.206 76.4428 115.536 75.2944 116.601C74.174 117.665 72.7317 118.198 70.9671 118.198C69.2583 118.198 67.885 117.637 66.8485 116.517C65.812 115.368 65.2943 113.94 65.2943 112.231C65.2943 111.923 65.3126 111.615 65.3366 111.307H64.958C64.5378 112.568 64.3277 113.758 64.3277 114.878C64.3277 115.999 64.3701 116.755 64.4532 117.147C65.2095 117.931 66.2741 118.506 67.6468 118.87C69.0472 119.262 70.364 119.458 71.5964 119.458C73.9776 119.458 75.882 118.744 77.3105 117.316C78.7391 115.859 79.4531 114.01 79.4531 111.769C79.4531 109.528 78.7529 107.763 77.3524 106.475L69.0752 98.8278C67.9547 97.7914 67.3941 96.5593 67.3941 95.1308C67.3941 93.7022 67.8701 92.5111 68.8226 91.5587C69.803 90.6063 71.0082 90.1302 72.4366 90.1302C73.8652 90.1302 75.0275 90.5226 75.9238 91.3069C76.8483 92.0912 77.3105 93.142 77.3105 94.4585H77.6889V89.2901H76.0497C74.7052 89.01 73.5012 88.8696 72.4366 88.8696H72.4375ZM96.6391 88.8696C96.6391 89.4859 96.1204 90.929 95.0839 93.1979L85.5883 115.802C85.168 116.671 84.6223 117.329 83.9501 117.777C83.2778 118.225 82.5915 118.45 81.8912 118.45H81.5126V118.87H89.9585V118.45H89.5798C88.9916 118.45 88.5433 118.267 88.2353 117.903C87.9552 117.511 87.8157 117.161 87.8157 116.853C87.8157 116.517 87.8711 116.181 87.9837 115.844L90.7987 108.66H102.143L104.832 115.802C104.945 116.139 105 116.475 105 116.811C105 117.147 104.845 117.511 104.538 117.903C104.258 118.267 103.823 118.45 103.235 118.45H102.858V118.87H112.312V118.45H111.975C111.247 118.45 110.547 118.225 109.874 117.777C109.202 117.329 108.67 116.671 108.278 115.802L97.0171 88.8696H96.6391ZM162.606 88.8696L159.665 89.458C159.72 90.3263 159.748 91.3212 159.748 92.4417C159.748 93.5341 159.496 95.2701 158.992 97.651L159.37 97.8618C160.183 97.4136 160.841 96.573 161.345 95.3405C161.877 94.1081 162.214 92.9876 162.354 91.9792C162.522 90.9428 162.606 90.2008 162.606 89.7526V88.8696ZM132.311 89.3321C127.465 89.3321 124.089 89.7803 122.185 90.6766C120.28 91.573 118.921 93.2114 118.109 95.5923L118.571 95.7611C118.992 95.0049 119.398 94.3884 119.79 93.9121C120.182 93.408 120.757 92.8901 121.513 92.3578C122.97 91.3494 125.449 90.8027 128.95 90.7187V116.055C128.865 116.727 128.572 117.301 128.068 117.777C127.564 118.226 126.961 118.45 126.261 118.45H125.757L125.714 118.87H139.958C144.44 118.87 148.067 117.526 150.84 114.837C153.641 112.119 155.041 108.562 155.041 104.164C155.041 101.251 154.397 98.7022 153.109 96.5174C151.848 94.3045 150.083 92.5954 147.814 91.3909C145.545 90.1864 142.927 89.542 139.958 89.458C135.868 89.3741 133.319 89.3322 132.31 89.3322L132.311 89.3321ZM191.219 89.458V89.8785H191.765C192.493 89.8785 193.109 90.1444 193.613 90.6766C194.145 91.1808 194.426 91.7973 194.454 92.5256V115.844C194.427 116.573 194.146 117.189 193.613 117.693C193.109 118.198 192.493 118.45 191.765 118.45H191.219V118.87H200.42L200.378 118.45H199.873C199.117 118.45 198.472 118.198 197.94 117.693C197.436 117.161 197.184 116.531 197.184 115.802V90.7606H199.873H199.874C200.882 90.7606 201.722 90.7753 202.394 90.8025C203.963 90.8864 205.21 91.503 206.134 92.6515C207.059 93.7999 207.549 95.3128 207.605 97.1895V98.1555C207.605 98.6317 207.522 99.1496 207.353 99.7098C206.457 102.539 204.271 103.996 200.798 104.08C200.266 104.108 199.818 104.122 199.453 104.122C199.089 104.122 198.796 104.107 198.571 104.08V104.501C199.468 104.501 200.364 104.977 201.261 105.929C201.569 106.265 201.863 106.615 202.143 106.979C202.423 107.315 203.417 108.715 205.125 111.18C206.834 113.645 207.871 115.102 208.235 115.551C208.627 115.971 209.075 116.419 209.579 116.895C210.112 117.343 210.896 117.792 211.932 118.24C212.968 118.66 214.089 118.87 215.293 118.87H217.605V118.45C216.68 118.45 215.812 118.253 214.999 117.861C214.635 117.693 214.271 117.469 213.907 117.189C213.543 116.909 213.207 116.629 212.899 116.349C212.591 116.041 212.073 115.495 211.345 114.711C210.616 113.898 209.048 111.769 206.639 108.323C206.19 107.707 205.671 107.12 205.083 106.559C204.523 105.971 204.033 105.579 203.613 105.383C205.602 105.383 207.283 104.57 208.655 102.945C210.056 101.293 210.756 99.3465 210.756 97.1056C210.756 94.8367 210.028 93.0011 208.572 91.6006C207.115 90.172 205.112 89.4579 202.563 89.4579L191.219 89.458ZM131.68 90.7185H139.958C142.311 90.7185 144.384 91.2793 146.177 92.3997C147.997 93.5202 149.398 95.1028 150.378 97.1476C151.386 99.1644 151.89 101.503 151.89 104.164C151.89 108.198 150.784 111.446 148.571 113.911C146.386 116.376 143.516 117.609 139.958 117.609H131.68V90.7185ZM173.824 92.8613C174.356 93.9257 174.943 95.3967 175.588 97.2734L178.907 107.063H168.277L173.824 92.8613ZM46.6806 93.9121L51.7229 107.399H41.3871L46.6806 93.9121ZM96.5963 93.9121L101.639 107.399H91.303L96.5963 93.9121Z" fill="#231F20"/>
</svg>
